<svg width="20" height="20" viewBox="0 0 20 20" fill="none" xmlns="http://www.w3.org/2000/svg">
<path d="M7.54511 18.1818C7.99698 18.1818 8.36329 17.8155 8.36329 17.3637C8.36329 16.9118 7.99698 16.5455 7.54511 16.5455C7.09324 16.5455 6.72693 16.9118 6.72693 17.3637C6.72693 17.8155 7.09324 18.1818 7.54511 18.1818Z" stroke="#C4C4C4" stroke-width="2" stroke-linecap="round" stroke-linejoin="round"/>
<path d="M16.5451 18.1818C16.997 18.1818 17.3633 17.8155 17.3633 17.3637C17.3633 16.9118 16.997 16.5455 16.5451 16.5455C16.0932 16.5455 15.7269 16.9118 15.7269 17.3637C15.7269 17.8155 16.0932 18.1818 16.5451 18.1818Z" stroke="#C4C4C4" stroke-width="2" stroke-linecap="round" stroke-linejoin="round"/>
<path d="M0.999634 1H4.27236L6.46509 11.9555C6.53991 12.3321 6.74483 12.6705 7.04399 12.9113C7.34315 13.1522 7.71748 13.2801 8.10145 13.2727H16.0542C16.4382 13.2801 16.8125 13.1522 17.1116 12.9113C17.4108 12.6705 17.6157 12.3321 17.6905 11.9555L18.9996 5.09091H5.09054" stroke="#C4C4C4" stroke-width="2" stroke-linecap="round" stroke-linejoin="round"/>
</svg>
