<svg width="21" height="19" viewBox="0 0 21 19" fill="none" xmlns="http://www.w3.org/2000/svg">
<path d="M15.0999 0C16.7289 0 18.0972 0.54932 19.2049 1.64796C20.3126 2.7466 20.8664 4.08759 20.8664 5.67092C20.8664 6.44643 20.7035 7.23002 20.3777 8.02169C20.0519 8.81335 19.6936 9.51616 19.3026 10.1301C18.9117 10.7441 18.2519 11.5357 17.3235 12.5051C16.395 13.4745 15.6131 14.2581 14.9778 14.8559C14.3425 15.4537 13.3244 16.3665 11.9235 17.5944L10.4086 18.9515L8.89367 17.6429C7.52535 16.3827 6.51541 15.4537 5.86383 14.8559C5.21225 14.2581 4.42222 13.4745 3.49372 12.5051C2.56522 11.5357 1.9055 10.7441 1.51455 10.1301C1.1236 9.51616 0.773382 8.81335 0.463883 8.02169C0.154383 7.23002 -0.000366211 6.44643 -0.000366211 5.67092C-0.000366211 4.08759 0.553475 2.7466 1.66116 1.64796C2.76884 0.54932 4.12086 0 5.71723 0C7.6068 0 9.17059 0.727041 10.4086 2.18112C11.6466 0.727041 13.2104 0 15.0999 0ZM10.5063 16.0918C12.1027 14.6701 13.2674 13.6118 14.0004 12.9171C14.7334 12.2224 15.5398 11.3903 16.4194 10.4209C17.299 9.45153 17.9099 8.60332 18.2519 7.87628C18.594 7.14924 18.7651 6.41412 18.7651 5.67092C18.7651 4.63691 18.4148 3.78061 17.7144 3.10204C17.014 2.42347 16.1425 2.08418 15.0999 2.08418C14.318 2.08418 13.5769 2.31037 12.8764 2.76276C12.176 3.21514 11.6792 3.79677 11.386 4.50765H9.43122C9.17059 3.79677 8.69005 3.21514 7.9896 2.76276C7.28916 2.31037 6.5317 2.08418 5.71723 2.08418C4.6747 2.08418 3.81136 2.42347 3.12721 3.10204C2.44305 3.78061 2.10097 4.63691 2.10097 5.67092C2.10097 6.41412 2.26387 7.14924 2.58965 7.87628C2.91544 8.60332 3.5263 9.45153 4.42222 10.4209C5.31813 11.3903 6.13261 12.2224 6.86563 12.9171C7.59866 13.6118 8.74706 14.6701 10.3108 16.0918L10.4086 16.1888L10.5063 16.0918Z" fill="#C4C4C4"/>
</svg>
