<svg width="23" height="19" viewBox="0 0 23 13" fill="none" xmlns="http://www.w3.org/2000/svg">
<path d="M0.683993 12L2.61581 0.363636H7.20672C8.08551 0.363636 8.8071 0.532197 9.37149 0.869318C9.93968 1.20265 10.3374 1.66667 10.5647 2.26136C10.7957 2.85227 10.8488 3.53409 10.7238 4.30682C10.595 5.08333 10.3147 5.76705 9.88286 6.35795C9.45483 6.94508 8.89801 7.40341 8.2124 7.73295C7.5268 8.0625 6.73513 8.22727 5.8374 8.22727H2.91127L3.23513 6.25568H5.76354C6.24081 6.25568 6.64801 6.17424 6.98513 6.01136C7.32604 5.8447 7.59687 5.61553 7.79763 5.32386C7.99839 5.02841 8.12907 4.68939 8.18968 4.30682C8.25407 3.91667 8.23324 3.57765 8.12718 3.28977C8.02111 3.00189 7.82604 2.77841 7.54195 2.61932C7.26164 2.45644 6.88475 2.375 6.41127 2.375H4.75218L3.14422 12H0.683993ZM22.5547 4.4375H20.1002C20.1078 4.11174 20.0661 3.82386 19.9752 3.57386C19.8843 3.32008 19.7479 3.10417 19.5661 2.92614C19.3881 2.74811 19.1703 2.61364 18.9127 2.52273C18.6551 2.42803 18.3653 2.38068 18.0434 2.38068C17.4222 2.38068 16.8521 2.53598 16.3331 2.84659C15.8142 3.1572 15.3767 3.60795 15.0206 4.19886C14.6646 4.78598 14.4184 5.49621 14.282 6.32955C14.1494 7.13258 14.157 7.80492 14.3047 8.34659C14.4525 8.88826 14.7138 9.29735 15.0888 9.57386C15.4676 9.84659 15.9392 9.98295 16.5036 9.98295C16.8521 9.98295 17.1835 9.93939 17.4979 9.85227C17.8123 9.76136 18.0983 9.63258 18.3559 9.46591C18.6172 9.29545 18.8445 9.08902 19.0377 8.84659C19.2347 8.60417 19.3881 8.32955 19.4979 8.02273H21.9695C21.8142 8.55682 21.5718 9.07197 21.2422 9.56818C20.9165 10.0644 20.5131 10.5076 20.032 10.8977C19.5509 11.2841 19.0036 11.5909 18.39 11.8182C17.7763 12.0455 17.104 12.1591 16.3729 12.1591C15.3161 12.1591 14.4089 11.9167 13.6513 11.4318C12.8975 10.947 12.354 10.2481 12.0206 9.33523C11.6873 8.42235 11.6248 7.32197 11.8331 6.03409C12.0415 4.78788 12.4487 3.73106 13.0547 2.86364C13.6646 1.99242 14.4051 1.33144 15.2763 0.880681C16.1513 0.429924 17.0869 0.204545 18.0831 0.204545C18.7763 0.204545 19.4032 0.299242 19.9638 0.488636C20.5244 0.67803 21.0017 0.954545 21.3956 1.31818C21.7934 1.67803 22.0926 2.11932 22.2934 2.64205C22.4941 3.16477 22.5812 3.76326 22.5547 4.4375Z" fill="#BDBDBD"/>
</svg>
