<svg width="21" height="20" viewBox="0 0 21 20" fill="none" xmlns="http://www.w3.org/2000/svg">
<path fill-rule="evenodd" clip-rule="evenodd" d="M0.110718 10C0.110718 4.579 4.68972 0 10.1107 0C15.5317 0 20.1107 4.579 20.1107 10C20.1107 13.19 18.5187 16.078 16.1107 17.924V18H16.0087C14.3407 19.245 12.2977 20 10.1107 20C7.92372 20 5.88072 19.245 4.21272 18H4.11072V17.924C1.70272 16.078 0.110718 13.189 0.110718 10ZM7.23419 15.236C6.70226 15.6639 6.33208 16.2604 6.18472 16.927C7.35272 17.604 8.69472 18 10.1107 18C11.5267 18 12.8687 17.604 14.0367 16.927C13.8892 16.2605 13.519 15.6641 12.9871 15.2362C12.4552 14.8083 11.7934 14.5744 11.1107 14.573H9.11072C8.42802 14.5742 7.76611 14.808 7.23419 15.236ZM13.8784 13.4117C14.6984 13.9574 15.3393 14.7329 15.7207 15.641C17.1877 14.182 18.1107 12.176 18.1107 10C18.1107 5.663 14.4477 2 10.1107 2C5.77372 2 2.11072 5.663 2.11072 10C2.11072 12.176 3.03372 14.182 4.50072 15.641C4.88216 14.7329 5.52299 13.9574 6.34299 13.4117C7.16298 12.866 8.12573 12.5742 9.11072 12.573H11.1107C12.0957 12.5742 13.0585 12.866 13.8784 13.4117ZM6.11072 8C6.11072 5.72 7.83072 4 10.1107 4C12.3907 4 14.1107 5.72 14.1107 8C14.1107 10.28 12.3907 12 10.1107 12C7.83072 12 6.11072 10.28 6.11072 8ZM8.11072 8C8.11072 9.178 8.93272 10 10.1107 10C11.2887 10 12.1107 9.178 12.1107 8C12.1107 6.822 11.2887 6 10.1107 6C8.93272 6 8.11072 6.822 8.11072 8Z" fill="#C4C4C4"/>
</svg>
