<svg width="16" height="17" viewBox="0 0 16 17" fill="none" xmlns="http://www.w3.org/2000/svg">
<path d="M5.98273 0.5V15.4274L8.58924 16.5V3.97876C8.58924 3.39364 8.79103 3.00015 9.1165 3.13754C9.54193 3.29 9.62469 3.82992 9.62469 4.41624V9.41654C11.2502 10.4331 12.5283 9.41592 12.5283 6.7326C12.5283 3.97876 11.7802 2.75731 9.57355 1.77328C8.70502 1.39605 7.09164 0.76514 5.98273 0.5Z" fill="#BDBDBD" />
<path d="M9.08295 14.319L13.2754 12.3817C13.7506 12.1612 13.8241 11.8478 13.4377 11.6845C13.0518 11.5212 12.3525 11.5688 11.8773 11.7888L9.08295 13.0651V11.0355L9.24382 10.9656C9.24382 10.9656 10.0514 10.5944 11.1855 10.4311C12.3209 10.2714 13.7111 10.4522 14.8014 10.9897C16.0316 11.4941 16.1697 12.2347 15.8578 12.7451C15.5444 13.2567 14.7795 13.6218 14.7795 13.6218L9.08295 16.2732V14.319Z" fill="#BDBDBD" />
<path d="M1.20128 14.1125C-0.0605947 13.6515 -0.271218 12.694 0.303462 12.1408C0.836762 11.6292 1.74063 11.2459 1.74063 11.2459L5.47698 9.52555V11.4864L2.78816 12.7343C2.31252 12.9549 2.24091 13.2682 2.62543 13.4303C3.01273 13.5954 3.71109 13.5484 4.1872 13.3267L5.47698 12.7211V14.477C5.39468 14.4951 5.30402 14.5138 5.22032 14.5313C3.92962 14.8042 2.55522 14.691 1.20128 14.1125Z" fill="#BDBDBD" />
</svg>