<svg width="16" height="17" viewBox="0 0 16 17" fill="none" xmlns="http://www.w3.org/2000/svg">
<g clip-path="url(#clip0_13_103)">
<path d="M7.20222 16.4671C5.96976 16.3491 4.72197 15.9068 3.65007 15.2078C2.75184 14.6221 2.54901 14.3813 2.54901 13.9008C2.54901 12.9356 3.61083 11.2451 5.42755 9.31792C6.45933 8.22342 7.89652 6.9405 8.05195 6.97524C8.35405 7.04277 10.7697 9.39777 11.674 10.5064C13.104 12.2594 13.7615 13.6948 13.4275 14.3347C13.1736 14.8212 11.5982 15.772 10.4408 16.1372C9.48695 16.4383 8.23419 16.5659 7.20222 16.4671ZM1.33585 12.8973C0.589451 11.7528 0.212344 10.6261 0.0302742 8.99652C-0.0298457 8.45843 -0.00830182 8.15064 0.166791 7.04619C0.385019 5.66964 1.16937 4.07715 2.11184 3.0971C2.51324 2.67969 2.54909 2.66952 3.03838 2.83426C3.63256 3.03431 4.2671 3.47231 5.25117 4.36165L5.82534 4.88055L5.5118 5.26552C4.05636 7.05256 2.51994 9.58562 1.94091 11.1528C1.62612 12.0047 1.49916 12.8599 1.6346 13.216C1.72605 13.4564 1.64205 13.3668 1.33585 12.8973ZM14.4375 13.0919C14.5113 12.7322 14.418 12.0714 14.1994 11.405C13.7261 9.96185 12.1438 7.27703 10.691 5.45161L10.2336 4.87697L10.7284 4.42287C11.3745 3.82995 11.8231 3.47492 12.3071 3.17342C12.689 2.9355 13.2348 2.72488 13.4694 2.72488C13.614 2.72488 14.1233 3.25305 14.5343 3.82944C15.171 4.72217 15.6394 5.80434 15.8767 6.93089C16.03 7.65879 16.0428 9.21689 15.9014 9.943C15.7853 10.5389 15.5403 11.3119 15.3013 11.8361C15.1222 12.2289 14.6767 12.9917 14.4815 13.24C14.3812 13.3676 14.3811 13.3673 14.4375 13.0919ZM7.33418 2.45236C6.66381 2.11212 5.62965 1.7469 5.05837 1.64864C4.8581 1.6142 4.51646 1.59498 4.29918 1.60595C3.82783 1.62974 3.84888 1.60511 4.60502 1.24806C5.23365 0.951228 5.75802 0.776675 6.46986 0.627291C7.27062 0.459245 8.77577 0.457273 9.56379 0.623237C10.4149 0.802492 11.4171 1.17525 11.9819 1.5226L12.1497 1.62584L11.7646 1.6064C10.9994 1.56778 9.88409 1.87677 8.68669 2.45917C8.32553 2.63484 8.01132 2.77514 7.98846 2.77095C7.96559 2.76676 7.67117 2.62339 7.33418 2.45236Z" fill="#BDBDBD" />
</g>
<defs>
<clipPath id="clip0_13_103">
<rect width="16" height="16" fill="white" transform="translate(0 0.5)" />
</clipPath>
</defs>
</svg>